<?xml version="1.0" encoding="UTF-8"?>
<svg id="Layer_1" data-name="Layer 1" xmlns="http://www.w3.org/2000/svg" viewBox="0 0 250 250">
  <defs>
    <style>
      .cls-1 {
        fill: none;
        stroke: #e0e0e0;
        stroke-miterlimit: 10;
        stroke-width: 1.42px;
      }

      .cls-2 {
        fill: #e0e0e0;
      }

      .cls-2, .cls-3 {
        stroke-width: 0px;
      }

      .cls-3 {
        fill: #cfd0d0;
      }
    </style>
  </defs>
  <circle class="cls-2" cx="169.1" cy="59.4" r="3.06"/>
  <circle class="cls-2" cx="137.08" cy="76.08" r="3.06"/>
  <circle class="cls-2" cx="162.97" cy="89.02" r="3.06"/>
  <circle class="cls-2" cx="190.64" cy="89.37" r="3.06"/>
  <circle class="cls-2" cx="157.72" cy="74.54" r="3.06"/>
  <circle class="cls-2" cx="163.58" cy="102.88" r="3.06"/>
  <circle class="cls-2" cx="176.25" cy="45.89" r="3.06"/>
  <circle class="cls-2" cx="174.41" cy="81.94" r="3.06"/>
  <circle class="cls-2" cx="181.44" cy="99.63" r="3.06"/>
  <circle class="cls-2" cx="193.7" cy="74.54" r="3.06"/>
  <circle class="cls-2" cx="183.53" cy="63.37" r="3.06"/>
  <circle class="cls-2" cx="193.71" cy="106.13" r="3.06"/>
  <g>
    <circle class="cls-3" cx="53.47" cy="180.43" r="3.06"/>
    <circle class="cls-3" cx="94.32" cy="154.19" r="3.06"/>
    <circle class="cls-3" cx="104.32" cy="134.51" r="3.06"/>
    <circle class="cls-3" cx="73.41" cy="200" r="3.06"/>
    <circle class="cls-3" cx="70.35" cy="180.43" r="3.06"/>
    <circle class="cls-3" cx="85.17" cy="144.51" r="3.06"/>
    <circle class="cls-3" cx="96.38" cy="190.6" r="3.06"/>
    <circle class="cls-3" cx="68.22" cy="154.92" r="3.06"/>
    <circle class="cls-3" cx="53.47" cy="147.12" r="3.06"/>
    <circle class="cls-3" cx="111.07" cy="161.87" r="3.06"/>
    <circle class="cls-3" cx="89.83" cy="173.46" r="3.06"/>
    <circle class="cls-3" cx="59.91" cy="165.33" r="3.06"/>
  </g>
  <line class="cls-1" x1="27.21" y1="125" x2="222.79" y2="125"/>
  <line class="cls-1" x1="125" y1="27.21" x2="125" y2="222.79"/>
  <circle class="cls-2" cx="169.18" cy="115.7" r="3.06"/>
  <circle class="cls-2" cx="143.4" cy="90.43" r="3.06"/>
  <circle class="cls-2" cx="151.26" cy="109.58" r="3.06"/>
</svg>