<?xml version="1.0" encoding="utf-8"?>
<!-- Generator: Adobe Illustrator 27.9.0, SVG Export Plug-In . SVG Version: 6.00 Build 0)  -->
<svg version="1.1" id="Layer_1" xmlns="http://www.w3.org/2000/svg" xmlns:xlink="http://www.w3.org/1999/xlink" x="0px" y="0px"
	 viewBox="0 0 250 250" style="enable-background:new 0 0 250 250;" xml:space="preserve">
<style type="text/css">
	.st0{fill:#E0E0E0;}
	.st1{fill:#CFD0D0;}
	.st2{fill:none;stroke:#E0E0E0;stroke-width:1.42;stroke-miterlimit:10;}
	.st3{fill:none;stroke:#E0E0E0;stroke-width:2.8346;stroke-miterlimit:10;stroke-dasharray:12.1394,12.1394;}
</style>
<g>
	<circle class="st0" cx="154.8" cy="80.7" r="2.1"/>
	<circle class="st0" cx="133.2" cy="92" r="2.1"/>
	<circle class="st0" cx="150.6" cy="100.7" r="2.1"/>
	<circle class="st0" cx="169.3" cy="101" r="2.1"/>
	<circle class="st0" cx="147.1" cy="90.9" r="2.1"/>
	<circle class="st0" cx="151" cy="110.1" r="2.1"/>
	<circle class="st0" cx="159.6" cy="71.6" r="2.1"/>
	<circle class="st0" cx="158.3" cy="95.9" r="2.1"/>
	<circle class="st0" cx="163.1" cy="107.9" r="2.1"/>
	<circle class="st0" cx="171.4" cy="90.9" r="2.1"/>
	<circle class="st0" cx="164.5" cy="83.4" r="2.1"/>
	<circle class="st0" cx="171.4" cy="112.3" r="2.1"/>
	<g>
		<circle class="st1" cx="76.7" cy="162.4" r="2.1"/>
		<circle class="st1" cx="104.3" cy="144.7" r="2.1"/>
		<circle class="st1" cx="111" cy="131.4" r="2.1"/>
		<circle class="st1" cx="90.2" cy="175.6" r="2.1"/>
		<circle class="st1" cx="88.1" cy="162.4" r="2.1"/>
		<circle class="st1" cx="98.1" cy="138.2" r="2.1"/>
		<circle class="st1" cx="105.7" cy="169.3" r="2.1"/>
		<circle class="st1" cx="86.7" cy="145.2" r="2.1"/>
		<circle class="st1" cx="76.7" cy="139.9" r="2.1"/>
		<circle class="st1" cx="115.6" cy="149.9" r="2.1"/>
		<circle class="st1" cx="101.3" cy="157.7" r="2.1"/>
		<circle class="st1" cx="81.1" cy="152.2" r="2.1"/>
	</g>
	<line class="st2" x1="59" y1="125" x2="191" y2="125"/>
	<line class="st2" x1="125" y1="59" x2="125" y2="191"/>
	<circle class="st0" cx="154.8" cy="118.7" r="2.1"/>
	<circle class="st0" cx="137.4" cy="101.7" r="2.1"/>
	<circle class="st0" cx="142.7" cy="114.6" r="2.1"/>
</g>
<g>
	<path class="st3" d="M189.9,200H60.1c-5.6,0-10.1-4.5-10.1-10.1V60.1C50,54.5,54.5,50,60.1,50h129.9c5.6,0,10.1,4.5,10.1,10.1
		v129.9C200,195.5,195.5,200,189.9,200z"/>
</g>
</svg>
