<?xml version="1.0" encoding="utf-8"?>
<!-- Generator: Adobe Illustrator 27.9.0, SVG Export Plug-In . SVG Version: 6.00 Build 0)  -->
<svg version="1.1" id="Layer_1" xmlns="http://www.w3.org/2000/svg" xmlns:xlink="http://www.w3.org/1999/xlink" x="0px" y="0px"
	 viewBox="0 0 250 250" style="enable-background:new 0 0 250 250;" xml:space="preserve">
<style type="text/css">
	.st0{fill:none;stroke:#E0E0E0;stroke-width:2.8346;stroke-miterlimit:10;stroke-dasharray:12.1394,12.1394;}
	.st1{fill:#E0E0E0;}
	.st2{fill:none;stroke:#E0E0E0;stroke-width:1.42;stroke-miterlimit:10;}
	.st3{fill:#CFD0D0;}
	.st4{fill:none;stroke:#CFD0D0;stroke-width:1.42;stroke-miterlimit:10;}
</style>
<g>
	<path class="st0" d="M189.9,200H60.1c-5.6,0-10.1-4.5-10.1-10.1V60.1C50,54.5,54.5,50,60.1,50h129.9c5.6,0,10.1,4.5,10.1,10.1
		v129.9C200,195.5,195.5,200,189.9,200z"/>
</g>
<g>
	<circle class="st1" cx="94.5" cy="96.8" r="2"/>
	<circle class="st1" cx="121.7" cy="141" r="2"/>
	<circle class="st1" cx="148.9" cy="154.4" r="2"/>
	<polyline class="st2" points="82.2,76.8 121.7,141 167.8,163.7 	"/>
	<circle class="st3" cx="94.5" cy="129" r="2"/>
	<circle class="st3" cx="121.7" cy="161.6" r="2"/>
	<circle class="st3" cx="148.9" cy="168.6" r="2"/>
	<polyline class="st4" points="82.2,114 121.7,161.6 167.8,173.2 	"/>
</g>
</svg>
